<?xml version="1.0" encoding="UTF-8"?>
<svg version="1.1" xmlns="http://www.w3.org/2000/svg" width="1000" height="554">
<path d="M0 0 C330 0 660 0 1000 0 C1000 182.82 1000 365.64 1000 554 C670 554 340 554 0 554 C0 371.18 0 188.36 0 0 Z " fill="#FDFDFD" transform="translate(0,0)"/>
<path d="M0 0 C17.36768824 -0.16358328 34.73513579 -0.28699057 52.10341835 -0.3626852 C60.16800324 -0.39876719 68.23210923 -0.44795143 76.29638672 -0.52807617 C83.32594543 -0.59788685 90.35515731 -0.64301684 97.38505304 -0.65861946 C101.10692749 -0.66773916 104.82780983 -0.68914102 108.549366 -0.7401104 C112.70604542 -0.79657637 116.86100467 -0.79792679 121.01806641 -0.79467773 C122.24949371 -0.81984467 123.48092102 -0.8450116 124.74966431 -0.87094116 C132.90575796 -0.80183827 132.90575796 -0.80183827 136.06519699 1.51333427 C137.604294 3.27349351 138.8196774 4.98633564 140 7 C140.62648438 7.92425781 141.25296875 8.84851563 141.8984375 9.80078125 C142.38570312 10.62964844 142.87296875 11.45851563 143.375 12.3125 C143.87773438 13.15425781 144.38046875 13.99601562 144.8984375 14.86328125 C146 17 146 17 146 19 C146.66 19 147.32 19 148 19 C149.21875 20.71484375 149.21875 20.71484375 150.5 22.9375 C152.18454879 26.05432026 152.18454879 26.05432026 155 28 C155.82453758 29.32215323 156.58648688 30.68378453 157.3125 32.0625 C160.31471288 37.62542387 163.61945246 42.92917869 167.125 48.1875 C169 51 169 51 170.375 53.4375 C171.79663426 55.67930788 173.25713774 57.51245018 175 59.5 C177.36079648 62.19305673 179.26167903 64.85446681 181 68 C181.556875 68.886875 182.11375 69.77375 182.6875 70.6875 C184 73 184 73 184 75 C184.66 75 185.32 75 186 75 C186.66 76.65 187.32 78.3 188 80 C188.66 80 189.32 80 190 80 C190.53625 80.94875 191.0725 81.8975 191.625 82.875 C193.87416308 86.82710085 196.24628978 90.69994146 198.6328125 94.5703125 C199.99416869 96.98963693 201.02933713 99.40232128 202 102 C202.99 102 203.98 102 205 102 C205.30292969 102.556875 205.60585938 103.11375 205.91796875 103.6875 C208.48444455 108.36243438 211.15461867 112.91241921 214.08203125 117.37109375 C215 119 215 119 215 121 C215.99 121.33 216.98 121.66 218 122 C219.03729079 123.71801287 220.06894702 125.44137789 221.015625 127.2109375 C222.16273989 129.29577329 223.51493058 131.14366323 225 133 C228.08797022 132.3530435 228.08797022 132.3530435 229 130.125 C229.33 129.42375 229.66 128.7225 230 128 C231 127 232 126 233 125 C233.350625 124.29875 233.70125 123.5975 234.0625 122.875 C235 121 235 121 237 120 C237.4125 119.175 237.825 118.35 238.25 117.5 C240.4475113 113.10497739 242.92926351 108.84911259 246 105 C246.66 105 247.32 105 248 105 C248.103125 104.278125 248.20625 103.55625 248.3125 102.8125 C249.06793947 99.72206579 250.15531315 97.58256159 252 95 C252.66 95 253.32 95 254 95 C254.3403125 93.9790625 254.3403125 93.9790625 254.6875 92.9375 C256.31226146 89.3011291 258.32803257 85.97170737 261 83 C261.66 83 262.32 83 263 83 C263.10183594 82.26910156 263.20367188 81.53820312 263.30859375 80.78515625 C264.07553999 77.69570616 265.17209189 75.98244577 267.0625 73.4375 C270.60189337 68.57721962 273.91996896 63.60276762 277.203125 58.56640625 C278.69391711 56.43716622 280.15462237 54.79792506 282 53 C282.88062633 51.4419688 283.75901442 49.88262236 284.625 48.31640625 C286.50474743 45.14967265 288.55110968 42.10371143 290.625 39.0625 C291.21982178 38.17425537 291.21982178 38.17425537 291.82666016 37.26806641 C292.83190944 35.80778708 293.91056602 34.39859767 295 33 C295.66 33 296.32 33 297 33 C297.09410156 32.29488281 297.18820312 31.58976562 297.28515625 30.86328125 C298.13093037 27.47556303 299.55013993 25.11859766 301.4375 22.1875 C302.05496094 21.21167969 302.67242188 20.23585938 303.30859375 19.23046875 C303.86675781 18.49441406 304.42492187 17.75835937 305 17 C305.66 17 306.32 17 307 17 C307.2627774 16.30343922 307.52555481 15.60687843 307.79629517 14.88920975 C310.12764414 9.29335603 312.70333945 4.34021332 317 0 C321.62949871 -1.68770091 325.96700017 -1.5257051 330.8515625 -1.36230469 C332.2418844 -1.35891493 333.63222775 -1.36082937 335.02253723 -1.36761475 C338.7779829 -1.37104367 342.52878359 -1.30076121 346.28315353 -1.21672726 C350.21334696 -1.14145416 354.14365986 -1.13464302 358.07446289 -1.12042236 C365.50903004 -1.08319726 372.94146709 -0.98483208 380.37509823 -0.86422849 C388.84156796 -0.72986485 397.30814218 -0.66406355 405.77541351 -0.60388327 C423.18483899 -0.47861834 440.59219395 -0.26769944 458 0 C457.19993271 3.87385156 455.85474807 5.24541852 453 8 C451.41633078 10.10600223 449.8813818 12.2156527 448.375 14.375 C447.49243546 15.62777888 446.60961549 16.88037786 445.7265625 18.1328125 C445.27700195 18.77250977 444.82744141 19.41220703 444.36425781 20.07128906 C443.03481312 21.95078317 441.68910048 23.81721594 440.3359375 25.6796875 C435.95530572 31.72171201 431.77489078 37.76168005 428.15625 44.3046875 C427.7746875 44.86414063 427.393125 45.42359375 427 46 C426.34 46 425.68 46 425 46 C424.67 47.32 424.34 48.64 424 50 C423.34 50 422.68 50 422 50 C421.79375 50.66 421.5875 51.32 421.375 52 C419.0204812 57.13713194 415.3619384 61.37324024 411.75 65.6875 C409.95413887 68.06060221 409.08550047 70.25006547 408 73 C407.54882812 73.44730469 407.09765625 73.89460938 406.6328125 74.35546875 C404.06337755 76.94334462 402.33199409 80.0581163 400.40234375 83.13671875 C399.70818359 84.05904297 399.70818359 84.05904297 399 85 C398.34 85 397.68 85 397 85 C396.76667969 85.68707031 396.53335937 86.37414062 396.29296875 87.08203125 C394.72424545 90.6223222 392.59810726 93.58897715 390.3125 96.6875 C389.4058744 97.93592524 388.49962611 99.18462457 387.59375 100.43359375 C387.1503125 101.04187012 386.706875 101.65014648 386.25 102.27685547 C384.57731033 104.58268431 382.94183429 106.91338651 381.3125 109.25 C380.76851562 110.02601563 380.22453125 110.80203125 379.6640625 111.6015625 C378.45927727 113.33803699 377.26829637 115.08411598 376.0859375 116.8359375 C375.45945312 117.75632812 374.83296875 118.67671875 374.1875 119.625 C373.62417969 120.46289062 373.06085938 121.30078125 372.48046875 122.1640625 C371.99191406 122.76992187 371.50335937 123.37578125 371 124 C370.34 124 369.68 124 369 124 C368.9175 124.721875 368.835 125.44375 368.75 126.1875 C367.83139587 129.63226548 366.26631328 131.24304158 364 134 C362.2587786 136.33071176 360.56666946 138.69566869 358.875 141.0625 C358.21177734 141.97999023 358.21177734 141.97999023 357.53515625 142.91601562 C355.42761688 145.86084027 353.59860717 148.75817337 352 152 C351.236875 152.721875 350.47375 153.44375 349.6875 154.1875 C346.28754949 157.74558774 344.22962684 161.64511183 342 166 C341.34 166 340.68 166 340 166 C339.76023437 166.52980469 339.52046875 167.05960938 339.2734375 167.60546875 C337.63577382 170.68487928 335.64003199 173.47410401 333.625 176.3125 C331.17497783 179.79257899 328.75843138 183.24041563 326.75 187 C324.86680381 190.22833633 322.63125043 192.36874957 320 195 C318.20679176 198.16645474 318.20679176 198.16645474 317 201 C316.34 201 315.68 201 315 201 C314.690625 201.78375 314.38125 202.5675 314.0625 203.375 C313 206 313 206 312 208 C311.34 208 310.68 208 310 208 C309.731875 208.928125 309.46375 209.85625 309.1875 210.8125 C308.04264452 213.88553313 307.31663259 214.87642013 305 217 C304.67 217.680625 304.34 218.36125 304 219.0625 C303 221 303 221 300 223 C297.98620208 226.07369155 297.54366829 228.36472827 298 232 C299.51195626 234.33141347 300.99341347 236.37334608 302.75 238.5 C303.1934375 239.05558594 303.636875 239.61117187 304.09375 240.18359375 C305.38525544 241.79797555 306.69052508 243.40017869 308 245 C315 253.63908451 315 253.63908451 315 257 C315.66 257 316.32 257 317 257 C318.17361494 258.66138941 319.26425263 260.38179483 320.3125 262.125 C322.35512972 265.4496149 324.34477838 268.58133623 326.9375 271.5 C329 274 329 274 329 277 C329.89138672 277.35771484 329.89138672 277.35771484 330.80078125 277.72265625 C333.46660288 279.27101091 334.53546457 280.85115147 336.1875 283.4375 C336.69667969 284.21996094 337.20585938 285.00242187 337.73046875 285.80859375 C339 288 339 288 340 291 C340.928125 291.8971875 340.928125 291.8971875 341.875 292.8125 C344 295 344 295 345.4375 297.9375 C346.84922904 301.09346193 346.84922904 301.09346193 349.375 303.375 C352.10919094 306.10919094 353.8633128 308.81121738 355.7890625 312.1328125 C356.93653278 314.05090025 356.93653278 314.05090025 358.5859375 315.5546875 C360 317 360 317 361 320 C361.556875 320.556875 362.11375 321.11375 362.6875 321.6875 C366.73740411 325.73740411 374 333.05099137 374 339 C374.598125 339.226875 375.19625 339.45375 375.8125 339.6875 C379.63717431 341.98230459 381.11501063 346.08502207 383 350 C383.66 350 384.32 350 385 350 C385.83848804 351.45537568 386.67063934 352.91440373 387.5 354.375 C387.9640625 355.18710937 388.428125 355.99921875 388.90625 356.8359375 C390 359 390 359 390 361 C390.99 361.33 391.98 361.66 393 362 C394.36279297 363.54711914 394.36279297 363.54711914 395.7421875 365.53515625 C396.25136719 366.26283203 396.76054688 366.99050781 397.28515625 367.74023438 C398.07212891 368.88975586 398.07212891 368.88975586 398.875 370.0625 C399.39191406 370.80177734 399.90882813 371.54105469 400.44140625 372.30273438 C402.97805725 375.9543617 405.46076342 379.64243538 407.8828125 383.37109375 C408.29160645 383.99814209 408.70040039 384.62519043 409.12158203 385.27124023 C410 387 410 387 410 390 C410.62389272 390.24621094 411.24778543 390.49242187 411.89058399 390.74609375 C414.46526222 392.27656717 414.69619287 393.32283995 415.75065613 396.0625 C416.96458882 398.31693013 416.96458882 398.31693013 419 400 C424.28842454 401.26077914 429.58829632 401.06997192 434.98950195 401 C436.6454101 401.00760778 438.30130529 401.01872809 439.95716858 401.03309631 C444.4489492 401.06211997 448.93932603 401.04199358 453.43105721 401.0130806 C458.12633608 400.99120238 462.82138518 401.01446902 467.51664734 401.03295898 C476.40607354 401.06110001 485.29496036 401.04860601 494.18437117 401.02153492 C504.3052902 400.99269031 514.42597711 401.00911149 524.54689848 401.02934647 C545.36473511 401.0699533 566.18220703 401.05367773 587 401 C587 401.99 587 402.98 587 404 C585.33784732 405.33895632 583.67036393 406.67130142 582 408 C580.61876037 409.96722008 579.28511874 411.96868328 578 414 C577.29875 414.86625 576.5975 415.7325 575.875 416.625 C573.98593691 418.83230223 573.98593691 418.83230223 573.0625 421 C571.88646473 423.21371346 570.37461429 424.59122204 568.56640625 426.296875 C565.61408681 429.50687818 563.24467369 433.18696371 560.76953125 436.76953125 C560.18558594 437.50558594 559.60164062 438.24164063 559 439 C558.34 439 557.68 439 557 439 C556.7525 439.53625 556.505 440.0725 556.25 440.625 C554.69347463 443.5823982 552.96564327 446.29724051 551 449 C550.34 449 549.68 449 549 449 C548.59201172 449.87398438 548.59201172 449.87398438 548.17578125 450.765625 C547.01444021 452.9725588 545.72277345 454.78938694 544.1875 456.75 C541.53326034 460.20245844 539.25320151 463.76111738 537.078125 467.53125 C536.72234375 468.0159375 536.3665625 468.500625 536 469 C535.34 469 534.68 469 534 469 C533.65195313 470.07314453 533.65195313 470.07314453 533.296875 471.16796875 C531.75505945 474.53488523 529.80479281 476.63770935 527.25 479.3125 C524.28312103 482.49221103 521.39903157 485.62722424 518.8125 489.125 C518.36900239 489.70808709 517.92550478 490.29117418 517.46856785 490.89193058 C515.9411026 492.96463682 515.9411026 492.96463682 514.8900671 495.31124783 C513.21487156 498.29592885 511.78885558 499.97933438 509 502 C502.65822416 503.76360506 495.71542662 503.1347495 489.20336914 503.02172852 C487.16295484 503.01918873 485.12253232 503.02061703 483.0821228 503.02571106 C477.55099935 503.02829169 472.02163513 502.97540899 466.49092031 502.91254544 C460.70810335 502.85625419 454.92524531 502.85099458 449.14219666 502.84031677 C438.1949656 502.81235213 427.24854419 502.73850841 416.30166954 502.64817137 C403.83753002 502.54754786 391.37335168 502.49808381 378.90890706 502.45291245 C353.27215596 502.35885844 327.63612336 502.20057223 302 502 C303.35794603 498.43337747 304.637148 495.98278086 307.25 493.1875 C310.21204526 489.9188248 312.92131994 486.57606219 315.5078125 483.00390625 C316.53795548 481.62049434 317.62051462 480.27513876 318.7421875 478.96484375 C321.39775799 475.78917305 322.90207045 473.86504432 323.375 469.6875 C321.65377832 465.0714964 319.10274442 461.65569245 316.1171875 457.76171875 C314.28386974 455.37028764 312.58730053 452.95679 310.9375 450.4375 C308.33137227 446.47926837 305.63350204 442.59431868 302.90625 438.71875 C300.81759928 435.73985471 298.75232703 432.7454533 296.6875 429.75 C292.97814342 424.37123201 289.19549248 419.04790573 285.36206055 413.75683594 C283.07698718 410.58464931 281.00195817 407.35523716 279 404 C278.01971384 402.65210653 277.02028865 401.31787285 276 400 C274.34061618 397.82282319 272.83990418 395.73103902 271.4375 393.375 C269.95264893 390.92176779 268.19593926 388.85735579 266.33984375 386.6796875 C260 378.73177843 260 378.73177843 260 374 C259.34 374 258.68 374 258 374 C255.17695232 370.80322911 252.91089957 367.37960693 250.6875 363.75 C247.88636583 359.27780295 244.83945439 355.16292512 241.55078125 351.04296875 C239.83251397 348.77935719 238.44851354 346.39517514 237.1015625 343.89453125 C235.14546809 340.53032633 232.83974476 337.40348389 230.5859375 334.234375 C229.36177943 332.5096991 228.17317058 330.75975587 227 329 C226.34 329 225.68 329 225 329 C223.51557425 330.92884649 222.15448916 332.85007686 220.8125 334.875 C220.00565634 336.07061495 219.19835948 337.26592419 218.390625 338.4609375 C217.98908203 339.05874023 217.58753906 339.65654297 217.17382812 340.27246094 C214.98758005 343.48999242 212.69190042 346.63104055 210.41015625 349.78125 C208.92736182 352.11428943 207.9839109 354.42309051 207 357 C205.5 359.3125 205.5 359.3125 204 361 C203.34 361 202.68 361 202 361 C201.73316406 361.56589844 201.46632813 362.13179688 201.19140625 362.71484375 C199.5028442 365.95356112 197.41120441 368.87568651 195.33984375 371.87890625 C193.85075698 374.04891168 193.85075698 374.04891168 193 377 C191.68945377 378.35573748 190.35251497 379.68612831 189 381 C186.66954393 383.72996283 185.13897735 385.58306794 184 389 C183.34 389 182.68 389 182 389 C181.773125 389.86625 181.54625 390.7325 181.3125 391.625 C180.08764231 394.77463405 178.76364914 396.62657656 176.546875 399.1171875 C173.76146033 402.50751545 171.46102014 406.23836179 169.0546875 409.90234375 C167.16922746 412.74487191 165.22720874 415.53337613 163.25 418.3125 C161.34718175 421.00387356 159.56867895 423.66443211 158 426.5625 C155.41629567 431.00324182 152.48608224 435.21339343 149 439 C148.34 439 147.68 439 147 439 C146.92265625 439.53238281 146.8453125 440.06476563 146.765625 440.61328125 C145.71102527 443.90083449 143.75986738 446.42700786 141.75 449.1875 C139.06656494 452.94630733 136.55111125 456.63172653 134.4375 460.75 C132.67805176 464.08688459 130.6406271 466.62175483 128.0625 469.375 C124.30112675 473.40554873 121.84319652 477.58430827 119.421875 482.51953125 C117.90866384 485.15933643 116.17391531 486.89091318 114 489 C112.76004579 490.83989928 112.76004579 490.83989928 111.8125 492.6875 C110 496 110 496 109 497 C107.19039129 497.09641497 105.37697872 497.12187398 103.56480408 497.12025452 C102.38544785 497.12162918 101.20609161 497.12300385 99.99099731 497.12442017 C98.6854892 497.12082489 97.37998108 497.11722961 96.03491211 497.11352539 C94.65547182 497.11324352 93.27603139 497.11340125 91.89659119 497.1139679 C88.14055882 497.11425588 84.38455811 497.10835905 80.62853312 497.10139394 C76.70739955 497.09516051 72.78626533 497.09455661 68.86512756 497.09336853 C61.43488389 497.09025518 54.00465486 497.08204175 46.57441765 497.07201904 C38.11748362 497.06085801 29.6605489 497.05534748 21.20360935 497.05032361 C3.80239775 497.03985914 -13.59879958 497.02225963 -31 497 C-30.26238413 493.73626532 -29.27248309 491.68925585 -27.26953125 488.98828125 C-26.71330078 488.22966797 -26.15707031 487.47105469 -25.58398438 486.68945312 C-24.99939453 485.90505859 -24.41480469 485.12066406 -23.8125 484.3125 C-18.70292192 477.39679967 -13.81746578 470.38874477 -9.171875 463.15234375 C-8.70265625 462.42144531 -8.2334375 461.69054687 -7.75 460.9375 C-7.27046875 460.18339844 -6.7909375 459.42929687 -6.296875 458.65234375 C-5.86890625 458.10707031 -5.4409375 457.56179688 -5 457 C-4.34 457 -3.68 457 -3 457 C-2.690625 455.7625 -2.690625 455.7625 -2.375 454.5 C-0.64979213 450.10856178 1.77469061 446.45318451 5 443 C5.66 443 6.32 443 7 443 C7.32484375 441.75669922 7.32484375 441.75669922 7.65625 440.48828125 C9.32632327 436.15288756 11.71656718 432.8735706 14.5 429.1875 C15.24830078 428.1675293 15.24830078 428.1675293 16.01171875 427.12695312 C19.72136657 422.13931672 19.72136657 422.13931672 22 421 C23.01847486 419.00934459 24.01517978 417.00751815 25 415 C28.61643836 409.19178082 28.61643836 409.19178082 31 408 C32.56021826 405.30305129 33.95174038 402.5370326 35.3671875 399.76171875 C36.98272458 397.02921942 38.70937575 395.17082172 41 393 C41.33 392.34 41.66 391.68 42 391 C43 389 43 389 44.875 387.1875 C47.16323746 384.83196144 48.44648778 382.52236963 49.99609375 379.66015625 C51.34100453 377.436082 53.16776031 375.83223969 55 374 C55.4228125 373.13117188 55.845625 372.26234375 56.28125 371.3671875 C58.33076258 367.35200603 60.80665969 363.83770087 63.4375 360.1875 C64.50786871 358.68623799 65.57817944 357.18493464 66.6484375 355.68359375 C67.19854492 354.91515137 67.74865234 354.14670898 68.31542969 353.35498047 C71.07645872 349.49514191 73.82050413 345.62337108 76.5625 341.75 C77.06257568 341.04770264 77.56265137 340.34540527 78.07788086 339.62182617 C80.08091283 336.79508545 81.98682185 334.02293418 83.71484375 331.015625 C84.35099609 330.01789063 84.35099609 330.01789063 85 329 C85.66 329 86.32 329 87 329 C87.268125 328.27425781 87.53625 327.54851562 87.8125 326.80078125 C88.98670381 324.03135976 90.3394324 321.69080566 92 319.1875 C92.515625 318.39730469 93.03125 317.60710937 93.5625 316.79296875 C94.036875 316.20128906 94.51125 315.60960937 95 315 C95.66 315 96.32 315 97 315 C97.2475 314.05125 97.495 313.1025 97.75 312.125 C99.20944633 308.47638418 99.72930833 308.63534584 103 307 C103.268125 306.14148438 103.53625 305.28296875 103.8125 304.3984375 C105.26540894 300.24044151 107.41934796 297.15680665 110 293.625 C110.45117188 292.98433594 110.90234375 292.34367187 111.3671875 291.68359375 C112.52236554 290.08069878 113.75551246 288.53458767 115 287 C115.66 287 116.32 287 117 287 C117.35578125 285.71222656 117.35578125 285.71222656 117.71875 284.3984375 C119.15692393 280.58376885 121.03601142 277.86498498 123.5 274.625 C124.10521484 273.80708984 124.10521484 273.80708984 124.72265625 272.97265625 C125.76087058 271.60550273 126.87521314 270.29686247 128 269 C128.66 269 129.32 269 130 269 C130.1546875 268.1646875 130.1546875 268.1646875 130.3125 267.3125 C131.14011401 264.52870742 132.37737752 262.40148127 134 260 C134.66 259.67 135.32 259.34 136 259 C136.37125 258.030625 136.7425 257.06125 137.125 256.0625 C138.92682279 251.5899551 141.87114934 248.25531424 144.93359375 244.578125 C147.47491684 241.40747615 149.63580309 238.068452 151.7734375 234.6171875 C152.17820312 234.08351563 152.58296875 233.54984375 153 233 C153.66 233 154.32 233 155 233 C154.65116298 226.70470858 152.56409804 223.36455381 148.6875 218.5 C147.70863273 217.24238244 146.73333311 215.98197943 145.76171875 214.71875 C145.05668213 213.80222656 145.05668213 213.80222656 144.33740234 212.8671875 C143.00046116 211.00064384 141.87576067 209.10414375 140.76953125 207.09375 C139.34626681 203.94214973 139.34626681 203.94214973 137 203 C136.71382812 202.27167969 136.42765625 201.54335937 136.1328125 200.79296875 C134.8075824 197.52559109 133.00791586 195.11434109 130.875 192.3125 C127 187.21708185 127 187.21708185 127 185 C126.01 184.67 125.02 184.34 124 184 C122.95878543 182.27548836 121.92382927 180.54529533 120.97265625 178.76953125 C119.82892755 176.6887718 118.44311554 174.88232461 117 173 C116.566875 172.2575 116.13375 171.515 115.6875 170.75 C114.24818438 168.40444862 112.73553697 166.30247023 111.0625 164.125 C108.80025459 161.15303054 106.89930223 158.14339113 105.09375 154.8671875 C103.3317284 151.85916491 101.28456265 149.06233595 99.265625 146.22265625 C97.42055946 143.59820958 95.60218213 140.96033563 93.796875 138.30859375 C93.22445068 137.46780273 92.65202637 136.62701172 92.06225586 135.76074219 C90.91322463 134.07094322 89.76555663 132.38021631 88.61938477 130.68847656 C86.38513628 127.40716446 84.16407439 124.20310045 81.66796875 121.11328125 C80 119 80 119 79 116 C78.34 115.67 77.68 115.34 77 115 C77 114.34 77 113.68 77 113 C76.34 113 75.68 113 75 113 C74.01780373 111.23084525 73.03934641 109.45961431 72.0625 107.6875 C71.24458984 106.20830078 71.24458984 106.20830078 70.41015625 104.69921875 C69 102 69 102 68 99 C67.34 99 66.68 99 66 99 C64.82393119 97.16924301 63.73417618 95.28268918 62.6875 93.375 C59.86272034 88.33135252 59.86272034 88.33135252 56.375 83.75 C54.06321814 81.07319995 52.33896478 78.40734105 50.51171875 75.3984375 C48.61636436 72.39133777 46.59541165 69.47727789 44.5625 66.5625 C40.50729803 60.74351439 36.53711405 54.87553364 32.65234375 48.94140625 C28.7368662 42.99729687 24.61654427 37.20981397 20.46484375 31.4296875 C20.06378418 30.86991211 19.66272461 30.31013672 19.24951172 29.73339844 C18.37743714 28.5236037 17.49827602 27.31889953 16.61376953 26.11816406 C14.64945127 23.43089205 13.05959036 21.17877108 12 18 C11.071875 17.1028125 11.071875 17.1028125 10.125 16.1875 C8 14 8 14 6.5625 11.0625 C5.11729606 7.84092727 5.11729606 7.84092727 2.3125 5.3125 C1.549375 4.549375 0.78625 3.78625 0 3 C0 2.01 0 1.02 0 0 Z " fill="#A6A6A6" transform="translate(392,23)"/>
<path d="M0 0 C70.62 0 141.24 0 214 0 C214 24.42 214 48.84 214 74 C171.1 74 128.2 74 84 74 C84 98.42 84 122.84 84 148 C123.6 148 163.2 148 204 148 C204 172.42 204 196.84 204 222 C164.73 222 125.46 222 85 222 C85 270.84 85 319.68 85 370 C56.95 370 28.9 370 0 370 C0 247.9 0 125.8 0 0 Z " fill="#010101" transform="translate(117,84)"/>
<path d="M0 0 C16.5 0 33 0 50 0 C50 3.63 50 7.26 50 11 C51.68854095 10.99476318 53.37708191 10.98952637 55.11679077 10.98413086 C109.84847472 10.83200864 164.56896188 11.30878051 219.29715705 11.89076424 C230.97440188 12.01478247 242.65169204 12.13426747 254.32898641 12.25351524 C278.21937483 12.49757662 302.10970598 12.74687714 326 13 C326.29946533 13.77706299 326.59893066 14.55412598 326.9074707 15.35473633 C328.05259565 18.12734612 329.43347375 20.25915703 331.1875 22.6875 C331.80625 23.55375 332.425 24.42 333.0625 25.3125 C333.701875 26.199375 334.34125 27.08625 335 28 C338.96086616 33.54521263 342.67096787 39.05529977 346 45 C346.5775 45.763125 347.155 46.52625 347.75 47.3125 C349 49 349 49 349 51 C349.66 51 350.32 51 351 51 C351.93731966 52.31919063 352.86058745 53.64998043 353.72265625 55.01953125 C355.82545085 58.27982747 358.14028418 61.39257617 360.4140625 64.53515625 C361.97621181 66.9630287 362.96175517 69.31710186 364 72 C364.495 72.474375 364.99 72.94875 365.5 73.4375 C367.62717155 75.6533037 368.15956851 78.09081407 369 81 C368.33613281 81.38671875 367.67226563 81.7734375 366.98828125 82.171875 C363.17272995 84.42221475 359.51268879 86.58548566 356.0625 89.375 C354 91 354 91 351 91 C349.640625 89.3828125 349.640625 89.3828125 348.25 87.125 C345.48889504 82.74864864 342.55395618 78.54734501 339.515625 74.359375 C337.98371617 71.97465094 336.96201953 69.65970105 336 67 C335.34 67 334.68 67 334 67 C332.5625 64.98828125 332.5625 64.98828125 331 62.3125 C330.484375 61.44238281 329.96875 60.57226562 329.4375 59.67578125 C328 57 328 57 327 54.23046875 C326.67 53.49441406 326.34 52.75835937 326 52 C325.01 51.67 324.02 51.34 323 51 C321.8671875 49.40625 321.8671875 49.40625 320.875 47.5 C319.35663546 44.26017229 319.35663546 44.26017229 318 43 C315.71785505 42.88040999 313.43196087 42.83244155 311.14678955 42.81054688 C310.42030519 42.80223091 309.69382083 42.79391495 308.9453218 42.78534698 C306.48863757 42.75843831 304.03194568 42.73864027 301.57519531 42.71875 C299.81822783 42.70094855 298.06126475 42.68270878 296.30430603 42.6640625 C291.49153286 42.61421439 286.67872029 42.57048081 281.86588001 42.52767944 C276.75688358 42.48112724 271.64794695 42.42874903 266.53900146 42.37695312 C256.76391216 42.27869285 246.98878296 42.18528586 237.21362853 42.09375763 C219.00069943 41.92302524 200.78786659 41.74225896 182.57502747 41.56222534 C178.37124401 41.52069963 174.16745775 41.47947598 169.96366882 41.43850708 C129.97454169 41.04845699 89.98715118 40.55544588 50 40 C50 42.97 50 45.94 50 49 C47.36 49 44.72 49 42 49 C42 196.18 42 343.36 42 495 C44.97 495 47.94 495 51 495 C51.33 495.66 51.66 496.32 52 497 C77.79419844 497.05940652 103.5855431 497.00751684 129.37890625 496.78125 C130.63466021 496.77024199 131.89041416 496.75923397 133.18422127 496.74789238 C139.65850058 496.69064323 146.13276555 496.63191302 152.60702515 496.57247925 C166.11035236 496.44882262 179.61374876 496.33342373 193.1171875 496.22265625 C194.43160261 496.21187105 195.74601772 496.20108585 197.1002636 496.18997383 C226.73396249 495.95002224 256.36551458 495.87725473 286 496 C286.13865479 495.38729248 286.27730957 494.77458496 286.42016602 494.14331055 C287.16570188 491.3874961 288.46531304 489.41165093 290 487 C290.73054631 485.81645412 291.46100952 484.63285694 292.19140625 483.44921875 C292.98087057 482.1947455 293.77125118 480.94084846 294.5625 479.6875 C294.96146484 479.04232422 295.36042969 478.39714844 295.77148438 477.73242188 C296.79382852 476.11954171 297.89126229 474.55475744 299 473 C299.66 473 300.32 473 301 473 C301.2475 472.29746094 301.495 471.59492188 301.75 470.87109375 C303.16999459 467.60954368 304.94779322 464.96857139 307 462.0625 C307.38937744 461.50763916 307.77875488 460.95277832 308.17993164 460.38110352 C310.34842604 457.29942294 312.54523117 454.23830219 314.74609375 451.1796875 C315.19533203 450.55441162 315.64457031 449.92913574 316.10742188 449.28491211 C316.97659693 448.07767135 317.8488667 446.87265107 318.72460938 445.67016602 C320.74333349 442.87485275 322.58919805 440.15310382 324 437 C324.66 437 325.32 437 326 437 C326.185625 436.175 326.37125 435.35 326.5625 434.5 C328.21335701 430.48052207 330.38429336 428.05216506 333.34375 424.9296875 C335.09352553 423.09281211 335.09352553 423.09281211 335.90625 420.8203125 C337 419 337 419 339.33984375 418.0390625 C342.86236777 417.98733674 343.94939364 419.0754664 346.5625 421.375 C349.36174062 423.81038785 351.29122245 425.41130515 355 426 C355 426.66 355 427.32 355 428 C356.32 428.33 357.64 428.66 359 429 C358.52965979 434.05855699 356.02712223 437.14154802 353.0625 441.0625 C349.10250256 446.26622288 349.10250256 446.26622288 346 452 C345.34 452 344.68 452 344 452 C343.78730469 452.65613281 343.57460938 453.31226563 343.35546875 453.98828125 C341.5042537 458.10149971 338.94993008 461.54307311 336.3125 465.1875 C335.22389752 466.71089405 334.13535555 468.23433133 333.046875 469.7578125 C332.52158203 470.4890332 331.99628906 471.22025391 331.45507812 471.97363281 C325.74836463 479.91667137 325.74836463 479.91667137 320.4375 488.125 C318.34630007 491.53086307 316.02800034 494.69111781 313.60546875 497.8671875 C308.72193081 504.35480725 304.23282851 511.07355334 300 518 C295.66265425 516.46917209 293.04042344 514.69361563 289 512 C289 516.95 289 521.9 289 527 C244.4224274 527.64944138 199.84411617 528.14252749 155.26348495 528.52910233 C151.48909753 528.5620496 147.71471731 528.59573047 143.94033813 528.62960815 C112.95948853 528.90637094 81.98211238 529.06842838 51 529 C51 533.62 51 538.24 51 543 C34.17 543 17.34 543 0 543 C0 527.16 0 511.32 0 495 C2.64 495 5.28 495 8 495 C8 347.82 8 200.64 8 49 C5.36 49 2.72 49 0 49 C0 32.83 0 16.66 0 0 Z " fill="#574B4B" transform="translate(28,7)"/>
<path d="M0 0 C54.12 0 108.24 0 164 0 C161.84247104 5.39382239 161.84247104 5.39382239 159 8 C157.79122739 9.46183414 156.60485218 10.94238155 155.4375 12.4375 C154.83808594 13.19933594 154.23867188 13.96117187 153.62109375 14.74609375 C152.15791746 16.78043765 151.11192345 18.76668993 150 21 C148.8614047 22.10510721 147.72063681 23.20810826 146.56640625 24.296875 C143.61408681 27.50687818 141.24467369 31.18696371 138.76953125 34.76953125 C138.18558594 35.50558594 137.60164063 36.24164063 137 37 C136.34 37 135.68 37 135 37 C134.62875 37.804375 134.62875 37.804375 134.25 38.625 C132.69347463 41.5823982 130.96564327 44.29724051 129 47 C128.34 47 127.68 47 127 47 C126.72800781 47.58265625 126.45601562 48.1653125 126.17578125 48.765625 C125.01444021 50.9725588 123.72277345 52.78938694 122.1875 54.75 C119.53326034 58.20245844 117.25320151 61.76111738 115.078125 65.53125 C114.54445313 66.25828125 114.54445313 66.25828125 114 67 C113.34 67 112.68 67 112 67 C111.65195312 68.07314453 111.65195312 68.07314453 111.296875 69.16796875 C109.75505945 72.53488523 107.80479281 74.63770935 105.25 77.3125 C102.28312103 80.49221103 99.39903157 83.62722424 96.8125 87.125 C96.36900239 87.70808709 95.92550478 88.29117418 95.46856785 88.89193058 C93.9411026 90.96463682 93.9411026 90.96463682 92.8900671 93.31124783 C91.21487156 96.29592885 89.78885558 97.97933438 87 100 C80.65822416 101.76360506 73.71542662 101.1347495 67.20336914 101.02172852 C65.16295484 101.01918873 63.12253232 101.02061703 61.0821228 101.02571106 C55.55099935 101.02829169 50.02163513 100.97540899 44.49092031 100.91254544 C38.70810335 100.85625419 32.92524531 100.85099458 27.14219666 100.84031677 C16.1949656 100.81235213 5.24854419 100.73850841 -5.69833046 100.64817137 C-18.16246998 100.54754786 -30.62664832 100.49808381 -43.09109294 100.45291245 C-68.72784404 100.35885844 -94.36387664 100.20057223 -120 100 C-118.64205397 96.43337747 -117.362852 93.98278086 -114.75 91.1875 C-111.81250195 87.94654141 -109.14514638 84.61928007 -106.5546875 81.09765625 C-103.77320992 77.3447581 -100.87833478 73.67881841 -98 70 C-95.19431993 70.35299229 -94.19618655 70.76935446 -92.33203125 72.9609375 C-91.83058594 73.75757813 -91.32914063 74.55421875 -90.8125 75.375 C-90.30332031 76.16648437 -89.79414062 76.95796875 -89.26953125 77.7734375 C-88 80 -88 80 -87 83 C-86.401875 83.5775 -85.80375 84.155 -85.1875 84.75 C-83 87 -83 87 -81.72930908 90.58522034 C-80.73914028 92.54529893 -80.73914028 92.54529893 -79 94 C-74.42597896 95.10893752 -69.82227735 94.9433951 -65.14355469 94.88647461 C-63.70453979 94.89436374 -62.26553893 94.90532492 -60.8265686 94.91912842 C-56.92157224 94.94787637 -53.01777326 94.93361219 -49.11277676 94.91168666 C-45.03140985 94.89606463 -40.95027938 94.91991138 -36.86895752 94.93959045 C-29.14118801 94.97084508 -21.41386244 94.96654943 -13.68606496 94.94951588 C-4.8879832 94.93185156 3.90986025 94.95376598 12.7079072 94.97902286 C30.8053594 95.03008826 48.90251247 95.03139247 67 95 C65.88734441 93.23707632 64.77280423 91.475342 63.6574707 89.71411133 C62.7267852 88.2423217 62.7267852 88.2423217 61.77729797 86.74079895 C59.72222032 83.57163162 57.53640963 80.64464517 55.1875 77.6875 C51.48667714 72.96349145 47.88373553 68.18116174 44.375 63.3125 C43.93696045 62.71203857 43.4989209 62.11157715 43.04760742 61.49291992 C40 57.23683146 40 57.23683146 40 55 C39.34 55 38.68 55 38 55 C36.87890625 53.55859375 36.87890625 53.55859375 35.5625 51.4375 C32.15660311 46.12056371 28.412324 41.08956998 24.60766602 36.05444336 C21 31.21574317 21 31.21574317 21 29 C20.401875 28.79375 19.80375 28.5875 19.1875 28.375 C16.1865771 26.4887056 15.48626441 24.16638939 14 21 C13.01904252 19.98131338 12.02297922 18.97648017 11 18 C10.67 17.01 10.34 16.02 10 15 C9.525625 14.525625 9.05125 14.05125 8.5625 13.5625 C6.83457923 11.83457923 6.08633631 10.17267262 5 8 C4.505 7.525625 4.01 7.05125 3.5 6.5625 C2 5 2 5 0 0 Z " fill="#282828" transform="translate(814,425)"/>
<path d="M0 0 C3.22466325 1.13811644 5.49557414 3.23859149 8.125 5.375 C10.16234305 6.77567335 11.71066636 7.31886899 14.125 7.75 C14.125 8.41 14.125 9.07 14.125 9.75 C16.105 10.245 16.105 10.245 18.125 10.75 C17.65465979 15.80855699 15.15212223 18.89154802 12.1875 22.8125 C8.22750256 28.01622288 8.22750256 28.01622288 5.125 33.75 C4.465 33.75 3.805 33.75 3.125 33.75 C2.80595703 34.73419922 2.80595703 34.73419922 2.48046875 35.73828125 C0.6292537 39.85149971 -1.92506992 43.29307311 -4.5625 46.9375 C-5.65110248 48.46089405 -6.73964445 49.98433133 -7.828125 51.5078125 C-8.35341797 52.2390332 -8.87871094 52.97025391 -9.41992188 53.72363281 C-15.12663537 61.66667137 -15.12663537 61.66667137 -20.4375 69.875 C-22.52869993 73.28086307 -24.84699966 76.44111781 -27.26953125 79.6171875 C-32.15306919 86.10480725 -36.64217149 92.82355334 -40.875 99.75 C-45.21234575 98.21917209 -47.83457656 96.44361563 -51.875 93.75 C-51.875 98.7 -51.875 103.65 -51.875 108.75 C-96.4525726 109.39944138 -141.03088383 109.89252749 -185.61151505 110.27910233 C-189.38590247 110.3120496 -193.16028269 110.34573047 -196.93466187 110.37960815 C-227.91563132 110.65637201 -258.89278552 110.81236635 -289.875 110.75 C-289.875 100.19 -289.875 89.63 -289.875 78.75 C-285.62423584 78.75870117 -285.62423584 78.75870117 -281.28759766 78.76757812 C-257.9900211 78.8039814 -234.6951822 78.73562013 -211.3984375 78.53125 C-210.14288118 78.52024199 -208.88732487 78.50923397 -207.59372139 78.49789238 C-201.12664766 78.44068083 -194.65958875 78.38194629 -188.1925354 78.32247925 C-174.70263677 78.19873377 -161.21266733 78.08342161 -147.72265625 77.97265625 C-146.40973539 77.96187105 -145.09681454 77.95108585 -143.7441082 77.93997383 C-114.12062054 77.69980961 -84.49927587 77.62729702 -54.875 77.75 C-54.73634521 77.13729248 -54.59769043 76.52458496 -54.45483398 75.89331055 C-53.70929812 73.1374961 -52.40968696 71.16165093 -50.875 68.75 C-50.14445369 67.56645412 -49.41399048 66.38285694 -48.68359375 65.19921875 C-47.89412943 63.9447455 -47.10374882 62.69084846 -46.3125 61.4375 C-45.91353516 60.79232422 -45.51457031 60.14714844 -45.10351562 59.48242188 C-44.08117148 57.86954171 -42.98373771 56.30475744 -41.875 54.75 C-41.215 54.75 -40.555 54.75 -39.875 54.75 C-39.50375 53.69619141 -39.50375 53.69619141 -39.125 52.62109375 C-37.70500541 49.35954368 -35.92720678 46.71857139 -33.875 43.8125 C-33.48562256 43.25763916 -33.09624512 42.70277832 -32.69506836 42.13110352 C-30.52657396 39.04942294 -28.32976883 35.98830219 -26.12890625 32.9296875 C-25.67966797 32.30441162 -25.23042969 31.67913574 -24.76757812 31.03491211 C-23.89840307 29.82767135 -23.0261333 28.62265107 -22.15039062 27.42016602 C-20.13166651 24.62485275 -18.28580195 21.90310382 -16.875 18.75 C-16.215 18.75 -15.555 18.75 -14.875 18.75 C-14.689375 17.925 -14.50375 17.1 -14.3125 16.25 C-12.66164299 12.23052207 -10.49070664 9.80216506 -7.53125 6.6796875 C-5.90210161 4.78157593 -4.9817237 2.97298813 -3.875 0.75 C-1.875 -0.25 -1.875 -0.25 0 0 Z " fill="#544B4A" transform="translate(368.875,425.25)"/>
<path d="M0 0 C56.43804481 -0.15906131 112.8625408 0.2906343 169.29715705 0.89076424 C180.97440188 1.01478247 192.65169204 1.13426747 204.32898641 1.25351524 C228.21937483 1.49757662 252.10970598 1.74687714 276 2 C276.29946533 2.77706299 276.59893066 3.55412598 276.9074707 4.35473633 C278.05259565 7.12734612 279.43347375 9.25915703 281.1875 11.6875 C281.80625 12.55375 282.425 13.42 283.0625 14.3125 C283.701875 15.199375 284.34125 16.08625 285 17 C288.96086616 22.54521263 292.67096787 28.05529977 296 34 C296.5775 34.763125 297.155 35.52625 297.75 36.3125 C299 38 299 38 299 40 C299.66 40 300.32 40 301 40 C301.93731966 41.31919063 302.86058745 42.64998043 303.72265625 44.01953125 C305.82545085 47.27982747 308.14028418 50.39257617 310.4140625 53.53515625 C311.97621181 55.9630287 312.96175517 58.31710186 314 61 C314.7425 61.7115625 314.7425 61.7115625 315.5 62.4375 C317.62717155 64.6533037 318.15956851 67.09081407 319 70 C318.33613281 70.38671875 317.67226563 70.7734375 316.98828125 71.171875 C313.17272995 73.42221475 309.51268879 75.58548566 306.0625 78.375 C304 80 304 80 301 80 C299.640625 78.3828125 299.640625 78.3828125 298.25 76.125 C295.48889504 71.74864864 292.55395618 67.54734501 289.515625 63.359375 C287.98371617 60.97465094 286.96201953 58.65970105 286 56 C285.34 56 284.68 56 284 56 C282.5625 53.98828125 282.5625 53.98828125 281 51.3125 C280.484375 50.44238281 279.96875 49.57226562 279.4375 48.67578125 C278 46 278 46 277 43.23046875 C276.67 42.49441406 276.34 41.75835937 276 41 C275.01 40.67 274.02 40.34 273 40 C271.8671875 38.40625 271.8671875 38.40625 270.875 36.5 C269.35663546 33.26017229 269.35663546 33.26017229 268 32 C265.71785505 31.88040999 263.43196087 31.83244155 261.14678955 31.81054688 C260.42030519 31.80223091 259.69382083 31.79391495 258.9453218 31.78534698 C256.48863757 31.75843831 254.03194568 31.73864027 251.57519531 31.71875 C249.81822783 31.70094855 248.06126475 31.68270878 246.30430603 31.6640625 C241.49153286 31.61421439 236.67872029 31.57048081 231.86588001 31.52767944 C226.75688358 31.48112724 221.64794695 31.42874903 216.53900146 31.37695312 C206.76391216 31.27869285 196.98878296 31.18528586 187.21362853 31.09375763 C169.00069943 30.92302524 150.78786659 30.74225896 132.57502747 30.56222534 C128.37124401 30.52069963 124.16745775 30.47947598 119.96366882 30.43850708 C79.97450089 30.04845659 39.98724673 29.55118428 0 29 C0 19.43 0 9.86 0 0 Z " fill="#6C5D5D" transform="translate(78,18)"/>
<path d="M0 0 C6.6 0 13.2 0 20 0 C23 6 23 6 23 10 C23.66 10 24.32 10 25 10 C25.12375 10.804375 25.2475 11.60875 25.375 12.4375 C25.58125 13.283125 25.7875 14.12875 26 15 C26.66 15.33 27.32 15.66 28 16 C28.88310925 17.82159499 29.6828298 19.68405299 30.4375 21.5625 C30.87320313 22.64660156 31.30890625 23.73070312 31.7578125 24.84765625 C32.16773438 25.88792969 32.57765625 26.92820313 33 28 C33.49113281 29.20462891 33.49113281 29.20462891 33.9921875 30.43359375 C35.36281552 33.88627101 36 36.22918392 36 40 C36.66 40 37.32 40 38 40 C38.24234375 40.68964844 38.4846875 41.37929687 38.734375 42.08984375 C40.65351531 47.47081793 42.68220324 52.73900373 45.0703125 57.9296875 C45.74095711 59.42313978 46.36727478 60.93677372 46.96484375 62.4609375 C47.99215931 64.98076811 49.17402189 67.34112584 50.4375 69.75 C53.17883176 75.17589039 56 80.83127663 56 87 C49.4 87 42.8 87 36 87 C33 78 33 78 33 76 C32.34 76 31.68 76 31 76 C29.74335022 73.09399739 29 71.20395416 29 68 C16.46 68 3.92 68 -9 68 C-9.33 69.65 -9.66 71.3 -10 73 C-10.65146849 75.33762223 -11.31526605 77.67190457 -12 80 C-12.66 80 -13.32 80 -14 80 C-14.33 82.31 -14.66 84.62 -15 87 C-21.93 87 -28.86 87 -36 87 C-35.1887586 83.75503438 -34.15965726 81.02129034 -32.81640625 77.984375 C-31.94682901 75.87076142 -31.2500935 73.74175809 -30.5625 71.5625 C-29.41106341 68.01322637 -27.92205835 64.83516161 -26.18359375 61.52734375 C-23.37676678 55.53388814 -21.26260893 49.21463253 -19 43 C-18.34 43 -17.68 43 -17 43 C-17 41.35 -17 39.7 -17 38 C-15.515 37.505 -15.515 37.505 -14 37 C-13.3359602 35.19460424 -13.3359602 35.19460424 -13.0625 33 C-12.25166513 28.75819446 -10.90018681 25.21336081 -9.0703125 21.31640625 C-7.62049746 18.17866786 -6.37744635 14.97057633 -5.125 11.75 C-3.50709514 7.79512144 -1.73543687 3.90473295 0 0 Z " fill="#050505" transform="translate(581,208)"/>
<path d="M0 0 C1.61460278 -0.05553075 3.22975164 -0.0953548 4.8449707 -0.12841797 C5.74431839 -0.15225555 6.64366608 -0.17609314 7.57026672 -0.20065308 C10 0 10 0 12.48046875 2.0546875 C13.04378906 2.98539063 13.60710937 3.91609375 14.1875 4.875 C14.82300781 5.87015625 15.45851563 6.8653125 16.11328125 7.890625 C16.73589844 8.91671875 17.35851562 9.9428125 18 11 C19.27746623 12.88470364 20.56822979 14.76049487 21.875 16.625 C22.42929687 17.44226563 22.98359375 18.25953125 23.5546875 19.1015625 C24.87006487 21.11868202 24.87006487 21.11868202 27 22 C27.268125 21.030625 27.53625 20.06125 27.8125 19.0625 C28.204375 18.051875 28.59625 17.04125 29 16 C29.99 15.67 30.98 15.34 32 15 C33.10636395 12.60931266 33.10636395 12.60931266 34 10 C34.66 9.01 35.32 8.02 36 7 C36.66 7 37.32 7 38 7 C38.4640625 5.824375 38.4640625 5.824375 38.9375 4.625 C40 2 40 2 41 0 C44.3 0 47.6 0 51 0 C51 15.84 51 31.68 51 48 C47.37 48 43.74 48 40 48 C39.505 44.04 39.505 44.04 39 40 C33.98756041 43.84380901 30.8313413 47.3373174 28 53 C27.34 53 26.68 53 26 53 C25.7421875 53.53109375 25.484375 54.0621875 25.21875 54.609375 C23.72555397 57.53833644 22.12816182 60.39381782 20.5 63.25 C19.8915625 64.32765625 19.283125 65.4053125 18.65625 66.515625 C18.1096875 67.33546875 17.563125 68.1553125 17 69 C16.34 69 15.68 69 15 69 C14.59358276 69.85694458 14.59358276 69.85694458 14.17895508 70.73120117 C12.97233673 73.05323561 11.61907608 75.14512225 10.13671875 77.30078125 C9.57919922 78.11353516 9.02167969 78.92628906 8.44726562 79.76367188 C7.86654297 80.60478516 7.28582031 81.44589844 6.6875 82.3125 C6.11837891 83.14201172 5.54925781 83.97152344 4.96289062 84.82617188 C2.41434837 88.53340843 -0.15097736 92.22414188 -2.78515625 95.87109375 C-4.39338316 98.14303335 -5.83037746 100.30071411 -7.125 102.75 C-9 106 -9 106 -10.40625 107.37890625 C-13.14567766 110.16533389 -15.01777593 113.61740954 -17.0859375 116.91796875 C-19 119 -19 119 -21.48828125 119.4375 C-24.13843288 118.97588727 -25.62888271 118.35863424 -27.8125 116.8125 C-28.71935547 116.20341797 -28.71935547 116.20341797 -29.64453125 115.58203125 C-31 114 -31 114 -31.453125 111.6796875 C-30.83824335 108.04340463 -29.23336955 106.18329515 -26.9375 103.3125 C-26.11034281 102.26300637 -25.28484625 101.21220199 -24.4609375 100.16015625 C-23.83977051 99.37342529 -23.83977051 99.37342529 -23.20605469 98.57080078 C-20.78278785 95.41466741 -18.61284075 92.07746269 -16.41015625 88.765625 C-15.71212891 87.89164063 -15.71212891 87.89164063 -15 87 C-14.34 87 -13.68 87 -13 87 C-12.7628125 86.1440625 -12.525625 85.288125 -12.28125 84.40625 C-10.86338216 80.63679648 -8.88886262 77.69246814 -6.5 74.5 C-5.60529343 73.27616982 -4.71076782 72.05220733 -3.81640625 70.828125 C-3.35508301 70.20228516 -2.89375977 69.57644531 -2.41845703 68.93164062 C-0.06338896 65.72453243 2.24886772 62.48705569 4.5625 59.25 C4.99175781 58.65380859 5.42101562 58.05761719 5.86328125 57.44335938 C8.10594837 54.32969397 8.10594837 54.32969397 10 51 C10.66 51 11.32 51 12 51 C12.2475 50.05125 12.495 49.1025 12.75 48.125 C14.17423987 44.56440032 14.71715887 44.48257341 18 43 C18.37756808 41.67851173 18.7018576 40.34164079 19 39 C20.28796166 36.97048465 21.61558 34.96498322 23 33 C22.34 33 21.68 33 21 33 C19.96986723 31.35178756 18.97934924 29.67888441 18 28 C16.43015986 25.90018825 14.8269602 23.83090069 13.20703125 21.76953125 C12 20 12 20 12 18 C11.34 18 10.68 18 10 18 C10 27.9 10 37.8 10 48 C7.03 48 4.06 48 1 48 C0 47 0 47 -0.12025452 45.09544373 C-0.1169236 43.84634972 -0.1169236 43.84634972 -0.11352539 42.57202148 C-0.11344986 41.63112167 -0.11337433 40.69022186 -0.11329651 39.72080994 C-0.10813522 38.69790359 -0.10297394 37.67499725 -0.09765625 36.62109375 C-0.0962413 35.57929459 -0.09482635 34.53749542 -0.09336853 33.46412659 C-0.0877508 30.12188906 -0.0751953 26.77971743 -0.0625 23.4375 C-0.05748728 21.17773534 -0.05292398 18.91796963 -0.04882812 16.65820312 C-0.03777561 11.10544609 -0.02102024 5.55272775 0 0 Z " fill="#A9A9A9" transform="translate(452,235)"/>
<path d="M0 0 C3.22466325 1.13811644 5.49557414 3.23859149 8.125 5.375 C10.16234305 6.77567335 11.71066636 7.31886899 14.125 7.75 C14.125 8.41 14.125 9.07 14.125 9.75 C15.445 10.08 16.765 10.41 18.125 10.75 C17.65465979 15.80855699 15.15212223 18.89154802 12.1875 22.8125 C8.22750256 28.01622288 8.22750256 28.01622288 5.125 33.75 C4.465 33.75 3.805 33.75 3.125 33.75 C2.91230469 34.40613281 2.69960938 35.06226563 2.48046875 35.73828125 C0.6292537 39.85149971 -1.92506992 43.29307311 -4.5625 46.9375 C-5.65110248 48.46089405 -6.73964445 49.98433133 -7.828125 51.5078125 C-8.35341797 52.2390332 -8.87871094 52.97025391 -9.41992188 53.72363281 C-15.12663537 61.66667137 -15.12663537 61.66667137 -20.4375 69.875 C-22.52869993 73.28086307 -24.84699966 76.44111781 -27.26953125 79.6171875 C-32.15306919 86.10480725 -36.64217149 92.82355334 -40.875 99.75 C-44.31427579 98.5080393 -47.12707819 97.19259716 -49.875 94.75 C-49.875 94.09 -49.875 93.43 -49.875 92.75 C-50.535 92.75 -51.195 92.75 -51.875 92.75 C-51.93558594 91.71359375 -51.99617188 90.6771875 -52.05859375 89.609375 C-52.14303371 88.23957127 -52.22767997 86.86978025 -52.3125 85.5 C-52.35181641 84.81808594 -52.39113281 84.13617188 -52.43164062 83.43359375 C-52.6672022 79.4448052 -52.6672022 79.4448052 -53.59765625 75.578125 C-54.044171 72.63490099 -52.51931648 71.15911485 -50.875 68.75 C-50.14054899 67.56887322 -49.41034302 66.38509997 -48.68359375 65.19921875 C-47.89412943 63.9447455 -47.10374882 62.69084846 -46.3125 61.4375 C-45.91353516 60.79232422 -45.51457031 60.14714844 -45.10351562 59.48242188 C-44.08117148 57.86954171 -42.98373771 56.30475744 -41.875 54.75 C-41.215 54.75 -40.555 54.75 -39.875 54.75 C-39.50375 53.69619141 -39.50375 53.69619141 -39.125 52.62109375 C-37.70500541 49.35954368 -35.92720678 46.71857139 -33.875 43.8125 C-33.48562256 43.25763916 -33.09624512 42.70277832 -32.69506836 42.13110352 C-30.52657396 39.04942294 -28.32976883 35.98830219 -26.12890625 32.9296875 C-25.67966797 32.30441162 -25.23042969 31.67913574 -24.76757812 31.03491211 C-23.89840307 29.82767135 -23.0261333 28.62265107 -22.15039062 27.42016602 C-20.13166651 24.62485275 -18.28580195 21.90310382 -16.875 18.75 C-16.215 18.75 -15.555 18.75 -14.875 18.75 C-14.5965625 17.5125 -14.5965625 17.5125 -14.3125 16.25 C-12.66164299 12.23052207 -10.49070664 9.80216506 -7.53125 6.6796875 C-5.90210161 4.78157593 -4.9817237 2.97298813 -3.875 0.75 C-1.875 -0.25 -1.875 -0.25 0 0 Z " fill="#2C2C2C" transform="translate(368.875,425.25)"/>
<path d="M0 0 C12.09231695 0 24.11296079 0.07908971 36.1875 0.5 C43.5196875 0.7475 43.5196875 0.7475 51 1 C51 16.51 51 32.02 51 48 C34.17 48 17.34 48 0 48 C0 32.16 0 16.32 0 0 Z " fill="#2A2A2A" transform="translate(28,502)"/>
<path d="M0 0 C15.84 0 31.68 0 48 0 C48 15.51 48 31.02 48 47 C42.6917169 47.66353539 38.02274808 48.12785825 32.75390625 48.1328125 C32.0984935 48.13376923 31.44308075 48.13472595 30.76780701 48.13571167 C29.39395043 48.13638626 28.02009052 48.13458287 26.64624023 48.13037109 C24.57072616 48.1250212 22.49542929 48.13033635 20.41992188 48.13671875 C19.0729162 48.13605767 17.72591066 48.1347759 16.37890625 48.1328125 C15.1782251 48.13168457 13.97754395 48.13055664 12.74047852 48.12939453 C8.47954763 47.98199597 4.23740303 47.47082256 0 47 C0 31.49 0 15.98 0 0 Z " fill="#272727" transform="translate(29,8)"/>
<path d="M0 0 C10.56 0 21.12 0 32 0 C32 4.95 32 9.9 32 15 C29.69 15 27.38 15 25 15 C25 33.81 25 52.62 25 72 C27.31 72 29.62 72 32 72 C32 76.95 32 81.9 32 87 C21.11 87 10.22 87 -1 87 C-1 82.05 -1 77.1 -1 72 C1.31 72 3.62 72 6 72 C6 53.19 6 34.38 6 15 C4.02 15 2.04 15 0 15 C0 10.05 0 5.1 0 0 Z " fill="#040404" transform="translate(663,208)"/>
<path d="M0 0 C0.75410156 0.00451172 1.50820313 0.00902344 2.28515625 0.01367188 C4.14847127 0.02546501 6.01174555 0.04340058 7.875 0.0625 C8.37 1.5475 8.37 1.5475 8.875 3.0625 C9.57625 3.083125 10.2775 3.10375 11 3.125 C16.05715285 4.77407158 18.53436722 9.17862503 21.5234375 13.37890625 C24.48202001 19.25331719 23.83913111 26.75945825 22.03125 32.953125 C18.83130637 40.00164948 13.88796841 45.09870695 6.9375 48.5 C0.52844255 49.67717382 -5.0250738 49.56503383 -11.125 47.0625 C-11.125 46.4025 -11.125 45.7425 -11.125 45.0625 C-11.8675 44.835625 -12.61 44.60875 -13.375 44.375 C-18.74901971 41.81012695 -21.11713077 36.82482666 -23.37109375 31.5390625 C-24.96978333 26.28740864 -24.91028532 20.28014033 -23.125 15.0625 C-22.465 14.7325 -21.805 14.4025 -21.125 14.0625 C-20.939375 13.19625 -20.75375 12.33 -20.5625 11.4375 C-16.84081708 2.69963575 -8.74685626 -0.09819441 0 0 Z " fill="#131313" transform="translate(360.125,234.9375)"/>
<path d="M0 0 C1.61460278 -0.05553075 3.22975164 -0.0953548 4.8449707 -0.12841797 C5.74431839 -0.15225555 6.64366608 -0.17609314 7.57026672 -0.20065308 C10 0 10 0 12.48046875 2.0546875 C13.04378906 2.98539063 13.60710937 3.91609375 14.1875 4.875 C14.82300781 5.87015625 15.45851563 6.8653125 16.11328125 7.890625 C16.73589844 8.91671875 17.35851562 9.9428125 18 11 C19.27746623 12.88470364 20.56822979 14.76049487 21.875 16.625 C22.42929687 17.44226563 22.98359375 18.25953125 23.5546875 19.1015625 C24.87006487 21.11868202 24.87006487 21.11868202 27 22 C27.268125 21.030625 27.53625 20.06125 27.8125 19.0625 C28.204375 18.051875 28.59625 17.04125 29 16 C29.99 15.67 30.98 15.34 32 15 C33.10636395 12.60931266 33.10636395 12.60931266 34 10 C34.66 9.01 35.32 8.02 36 7 C36.66 7 37.32 7 38 7 C38.309375 6.21625 38.61875 5.4325 38.9375 4.625 C40 2 40 2 41 0 C44.3 0 47.6 0 51 0 C51 15.84 51 31.68 51 48 C47.7 48 44.4 48 41 48 C41 38.43 41 28.86 41 19 C36.22880216 23.44433762 36.22880216 23.44433762 34 27 C33.34 27 32.68 27 32 27 C31.855625 27.804375 31.71125 28.60875 31.5625 29.4375 C31 32 31 32 30 33 C26.94928029 33.42539916 24.0458638 33.47712985 21 33 C19.3125 31 19.3125 31 18 28 C16.96180294 26.58599724 15.8972873 25.19108386 14.8125 23.8125 C12 20.23357664 12 20.23357664 12 18 C11.34 18 10.68 18 10 18 C10 27.9 10 37.8 10 48 C7.03 48 4.06 48 1 48 C0 47 0 47 -0.12025452 45.09544373 C-0.11803391 44.26271439 -0.11581329 43.42998505 -0.11352539 42.57202148 C-0.11344986 41.63112167 -0.11337433 40.69022186 -0.11329651 39.72080994 C-0.10813522 38.69790359 -0.10297394 37.67499725 -0.09765625 36.62109375 C-0.0962413 35.57929459 -0.09482635 34.53749542 -0.09336853 33.46412659 C-0.0877508 30.12188906 -0.0751953 26.77971743 -0.0625 23.4375 C-0.05748728 21.17773534 -0.05292398 18.91796963 -0.04882812 16.65820312 C-0.03777561 11.10544609 -0.02102024 5.55272775 0 0 Z " fill="#101010" transform="translate(452,235)"/>
<path d="M0 0 C3.51581557 1.17193852 3.8448902 1.89253518 5.75 4.9375 C7.96209511 8.39871349 10.23872634 11.78114442 12.625 15.125 C14.63844881 17.98108158 16.5429463 20.82575904 18.25 23.875 C19.8759417 26.94571176 19.8759417 26.94571176 21.75 29.3125 C23 31 23 31 23 33 C23.66 33 24.32 33 25 33 C25.93731966 34.31919063 26.86058745 35.64998043 27.72265625 37.01953125 C29.82545085 40.27982747 32.14028418 43.39257617 34.4140625 46.53515625 C35.97621181 48.9630287 36.96175517 51.31710186 38 54 C38.495 54.474375 38.99 54.94875 39.5 55.4375 C41.62717155 57.6533037 42.15956851 60.09081407 43 63 C42.33613281 63.38671875 41.67226563 63.7734375 40.98828125 64.171875 C37.17272995 66.42221475 33.51268879 68.58548566 30.0625 71.375 C28 73 28 73 25 73 C23.640625 71.3828125 23.640625 71.3828125 22.25 69.125 C19.48889504 64.74864864 16.55395618 60.54734501 13.515625 56.359375 C11.98371617 53.97465094 10.96201953 51.65970105 10 49 C9.34 49 8.68 49 8 49 C6.5625 46.98828125 6.5625 46.98828125 5 44.3125 C4.484375 43.44238281 3.96875 42.57226562 3.4375 41.67578125 C2 39 2 39 1 36.23046875 C0.505 35.12638672 0.505 35.12638672 0 34 C-0.99 33.67 -1.98 33.34 -3 33 C-4.75 30.125 -4.75 30.125 -6 27 C-5.505 25.515 -5.505 25.515 -5 24 C-3.35 24 -1.7 24 0 24 C0 16.08 0 8.16 0 0 Z " fill="#070707" transform="translate(354,25)"/>
<path d="M0 0 C4.0425 -0.04125 8.085 -0.0825 12.25 -0.125 C13.51875977 -0.14320801 14.78751953 -0.16141602 16.09472656 -0.18017578 C17.60244629 -0.18766846 17.60244629 -0.18766846 19.140625 -0.1953125 C20.68024902 -0.21102295 20.68024902 -0.21102295 22.25097656 -0.22705078 C26.49110662 0.12315534 28.36475142 1.29215159 31.1875 4.4375 C34.49663571 9.11593324 34.37927018 13.47627017 34 19 C32.94288811 23.05226225 31.52520102 24.76737269 28 27 C28.58410556 30.94271252 30.45963926 32.99167807 33 36 C34.26020328 37.53333747 35.50952358 39.07566002 36.75 40.625 C37.36359375 41.38039063 37.9771875 42.13578125 38.609375 42.9140625 C40 45 40 45 40 48 C36.13884982 48.70267255 32.83679381 48.9200217 29 48 C25.61349467 44.75297182 23.41808301 40.99064479 21 37 C19.67806702 35.32427664 18.34688966 33.6557306 17 32 C16.67 31.34 16.34 30.68 16 30 C14.35 29.67 12.7 29.34 11 29 C11 35.27 11 41.54 11 48 C7.37 48 3.74 48 0 48 C0 32.16 0 16.32 0 0 Z " fill="#121212" transform="translate(397,235)"/>
<path d="M0 0 C3.80277064 1.90138532 4.88304975 2.57255675 7 6 C7.144375 6.66 7.28875 7.32 7.4375 8 C7.86241522 10.14417235 7.86241522 10.14417235 9.71875 11.6953125 C12.5294088 14.53484793 14.7584002 17.62093401 17.0625 20.875 C17.49626953 21.47441406 17.93003906 22.07382813 18.37695312 22.69140625 C20.97018892 26.33061996 23.0045372 29.99253741 25 34 C26.71533646 36.32659222 28.53471909 38.52898367 30.37890625 40.75390625 C32 43 32 43 33.02734375 45.65234375 C33.87761256 48.32023233 33.87761256 48.32023233 37 50 C38.05771739 51.63064764 39.05273046 53.30280873 40 55 C40.556875 55.886875 41.11375 56.77375 41.6875 57.6875 C43 60 43 60 43 62 C43.66 62 44.32 62 45 62 C46.03789581 63.64333504 47.03567924 65.31243867 48 67 C48.99 67.99 48.99 67.99 50 69 C48.02462773 72.55567009 45.91172474 75.17926665 43 78 C41.97676564 79.31558703 40.96873032 80.64377755 40 82 C40 80.68 40 79.36 40 78 C39.34 78 38.68 78 38 78 C37.34 76.02 36.68 74.04 36 72 C35.34 72 34.68 72 34 72 C32.59765625 69.98828125 32.59765625 69.98828125 31.0625 67.3125 C30.55847656 66.44238281 30.05445313 65.57226562 29.53515625 64.67578125 C29.02855469 63.79277344 28.52195312 62.90976563 28 62 C26.4357908 59.29000756 25.18662274 57.18096751 22.9375 55 C21 53 21 53 20.13671875 50.73046875 C18.7953054 47.5083109 16.98665522 45.08641268 14.875 42.3125 C11 37.21708185 11 37.21708185 11 35 C9.515 34.505 9.515 34.505 8 34 C7.33333333 32 6.66666667 30 6 28 C5.01 27.67 4.02 27.34 3 27 C2.05174302 25.40828293 1.11500059 23.80825986 0.24609375 22.171875 C-1.7414913 18.70762018 -4.1475776 15.54665573 -6.51171875 12.33203125 C-8 10 -8 10 -9 6 C-6.03 4.02 -3.06 2.04 0 0 Z " fill="#A9A9A9" transform="translate(443,168)"/>
<path d="M0 0 C4.26799109 0.70379883 6.40928672 2.52305753 9.58203125 5.42578125 C10.63539636 8.58587658 10.78236013 10.98109485 10.83203125 14.30078125 C10.8578125 15.32945312 10.88359375 16.358125 10.91015625 17.41796875 C10.3931958 22.15677287 8.43370311 24.65522099 4.95703125 27.80078125 C0.51758675 29.93829157 -2.74589237 29.94011908 -7.41796875 28.42578125 C-10.12349263 26.2275431 -11.86575208 24.53021458 -13.41796875 21.42578125 C-13.56698366 19.32524409 -13.63935328 17.218903 -13.66796875 15.11328125 C-13.69375 13.98277344 -13.71953125 12.85226562 -13.74609375 11.6875 C-13.30926197 7.34518407 -11.65440187 5.00952704 -9.02734375 1.64453125 C-6.21907632 -0.48211787 -3.40139006 -0.09462139 0 0 Z " fill="#F7F7F7" transform="translate(361.41796875,244.57421875)"/>
<path d="M0 0 C2.59579847 0.9921957 3.76451254 1.53693324 5.046875 4.05859375 C5.27890625 4.84363281 5.5109375 5.62867188 5.75 6.4375 C6.11351562 7.61119141 6.11351562 7.61119141 6.484375 8.80859375 C7 11 7 11 7 14 C7.66 14 8.32 14 9 14 C9.50833591 15.24663331 10.00631145 16.49749387 10.5 17.75 C10.7784375 18.44609375 11.056875 19.1421875 11.34375 19.859375 C12 22 12 22 12 26 C4.74 26 -2.52 26 -10 26 C-8.87405773 22.6221732 -7.7698605 19.31267956 -6.5 16 C-5.24715043 12.69298591 -4.09322219 9.36376059 -3 6 C-2.34 6 -1.68 6 -1 6 C-0.67 4.02 -0.34 2.04 0 0 Z " fill="#989898" transform="translate(590,234)"/>
<path d="M0 0 C1.37562854 1.28965176 2.70766393 2.62689293 4 4 C4 4.66 4 5.32 4 6 C-44.18 6 -92.36 6 -142 6 C-142.66 4.68 -143.32 3.36 -144 2 C-143.01 2.495 -143.01 2.495 -142 3 C-140.11211772 3.09369272 -138.22086299 3.12190969 -136.33065796 3.12025452 C-135.1246846 3.12162918 -133.91871124 3.12300385 -132.67619324 3.12442017 C-131.33279394 3.12088081 -129.9893949 3.11724599 -128.64599609 3.11352539 C-127.23685203 3.11324344 -125.82770782 3.11340141 -124.41856384 3.1139679 C-120.58614708 3.11425555 -116.75376143 3.10836398 -112.92135191 3.10139394 C-108.9188118 3.09515508 -104.91627103 3.09455618 -100.91372681 3.09336853 C-93.33122791 3.09025679 -85.74874338 3.08204551 -78.16625082 3.07201904 C-69.53517354 3.06085304 -60.90409558 3.05534622 -52.27301288 3.05032361 C-34.51533376 3.03986277 -16.75766804 3.02226636 1 3 C0.67 2.01 0.34 1.02 0 0 Z " fill="#8D8D8D" transform="translate(877,514)"/>
<path d="M0 0 C0.33 0 0.66 0 1 0 C1.33 15.51 1.66 31.02 2 47 C4.97 47.33 7.94 47.66 11 48 C11 38.1 11 28.2 11 18 C11.66 18 12.32 18 13 18 C14.91015625 20.265625 14.91015625 20.265625 17.0625 23.25 C17.77535156 24.22453125 18.48820312 25.1990625 19.22265625 26.203125 C20.75415249 28.61312787 21.56996146 30.22128943 22 33 C22.66 33 23.32 33 24 33 C23.33333333 34.33333333 22.66666667 35.66666667 22 37 C21.54625 37.99 21.0925 38.98 20.625 40 C19.02285547 42.95780529 17.43215931 44.71985065 15 47 C13.97676564 48.31558703 12.96873032 49.64377755 12 51 C12 50.34 12 49.68 12 49 C11.21753906 49.01160156 10.43507813 49.02320313 9.62890625 49.03515625 C8.61699219 49.04417969 7.60507812 49.05320312 6.5625 49.0625 C5.55316406 49.07410156 4.54382813 49.08570313 3.50390625 49.09765625 C1 49 1 49 0 48 C-0.09311889 46.49581261 -0.11746028 44.98728644 -0.11352539 43.48022461 C-0.11344986 42.51930405 -0.11337433 41.55838348 -0.11329651 40.56834412 C-0.10813522 39.523564 -0.10297394 38.47878387 -0.09765625 37.40234375 C-0.0962413 36.33834854 -0.09482635 35.27435333 -0.09336853 34.17811584 C-0.08775064 30.76454917 -0.07519511 27.351047 -0.0625 23.9375 C-0.05748731 21.62955824 -0.052924 19.32161545 -0.04882812 17.01367188 C-0.0377754 11.34242574 -0.02101987 5.67121747 0 0 Z " fill="#DFDFDF" transform="translate(451,235)"/>
<path d="M0 0 C0.33 0.99 0.66 1.98 1 3 C0.01 3.33 -0.98 3.66 -2 4 C-2 4.66 -2 5.32 -2 6 C65.32 6.33 132.64 6.66 202 7 C202 7.33 202 7.66 202 8 C133.69 8 65.38 8 -5 8 C-2.75 2.375 -2.75 2.375 0 0 Z " fill="#393939" transform="translate(699,517)"/>
<path d="M0 0 C0.33 0 0.66 0 1 0 C1 19.14 1 38.28 1 58 C-0.98 58 -2.96 58 -5 58 C-5 61.96 -5 65.92 -5 70 C4.57 70 14.14 70 24 70 C24 66.04 24 62.08 24 58 C22.35 58 20.7 58 19 58 C19 57.67 19 57.34 19 57 C21.31 57 23.62 57 26 57 C26 61.95 26 66.9 26 72 C15.11 72 4.22 72 -7 72 C-7 67.05 -7 62.1 -7 57 C-4.69 57 -2.38 57 0 57 C0 38.19 0 19.38 0 0 Z " fill="#333333" transform="translate(669,223)"/>
<path d="M0 0 C54.12 0 108.24 0 164 0 C163.34 1.65 162.68 3.3 162 5 C160.02 4.505 160.02 4.505 158 4 C158 3.34 158 2.68 158 2 C105.86 2 53.72 2 0 2 C0 1.34 0 0.68 0 0 Z " fill="#363636" transform="translate(814,425)"/>
<path d="M0 0 C2.44814491 -0.36914349 2.44814491 -0.36914349 5.59341431 -0.36076355 C6.78255936 -0.36488754 7.97170441 -0.36901154 9.19688416 -0.3732605 C10.50814774 -0.36247467 11.81941132 -0.35168884 13.17041016 -0.34057617 C14.55984987 -0.3397303 15.94929093 -0.34020426 17.33872986 -0.34190369 C21.11753326 -0.34276664 24.89605267 -0.32509263 28.67478991 -0.30418181 C32.62126264 -0.28546483 36.56774144 -0.28366852 40.51425171 -0.28010559 C47.99055879 -0.27077044 55.46673473 -0.24613687 62.94298398 -0.21605712 C71.45312807 -0.18255874 79.96327831 -0.16603861 88.47347188 -0.15097082 C105.98239053 -0.11958852 123.49118141 -0.06679958 141 0 C140.67 1.32 140.34 2.64 140 4 C139.67 3.34 139.34 2.68 139 2 C121.3541934 1.90655859 103.70846402 1.83602183 86.06246662 1.79275131 C77.86911562 1.77212603 69.67591835 1.7440062 61.48266602 1.69824219 C54.34141776 1.65837324 47.20028083 1.63256694 40.05892438 1.62364602 C36.27757466 1.61843131 32.49654343 1.60617599 28.71529579 1.57707977 C25.15545692 1.54990946 21.59606744 1.54155808 18.03613472 1.54756927 C16.10831087 1.54594586 14.18053585 1.52443139 12.25283813 1.50231934 C11.10163986 1.50781799 9.95044159 1.51331665 8.76435852 1.51898193 C7.76605672 1.51529476 6.76775492 1.51160759 5.73920155 1.50780869 C2.27339471 2.13055951 0.55760195 3.64534835 -2 6 C-2 3 -2 3 0 0 Z " fill="#C9C9C9" transform="translate(709,23)"/>
<path d="M0 0 C0.90105469 0.02707031 1.80210937 0.05414063 2.73046875 0.08203125 C3.76107422 0.13423828 3.76107422 0.13423828 4.8125 0.1875 C4.8125 1.1775 4.8125 2.1675 4.8125 3.1875 C5.4725 3.1875 6.1325 3.1875 6.8125 3.1875 C6.5675929 6.49374582 5.53527662 7.47792449 3.1875 9.9375 C-0.18588837 12.60027145 -2.91876647 12.68970394 -7.1875 12.1875 C-9.06014676 10.31485324 -8.42357378 7.68990053 -8.515625 5.1953125 C-8.1875 3.1875 -8.1875 3.1875 -6.99609375 1.44140625 C-4.55806202 -0.24889221 -2.9366119 -0.11441345 0 0 Z " fill="#1A1A1A" transform="translate(181.1875,160.8125)"/>
<path d="M0 0 C1.95803507 -0.05389087 3.91648909 -0.09274217 5.875 -0.125 C7.51082031 -0.15980469 7.51082031 -0.15980469 9.1796875 -0.1953125 C12 0 12 0 14 2 C14.35458018 4.76572542 14.46984593 6.33464771 12.8359375 8.6484375 C10.2714625 10.53632761 8.45725881 10.29849149 5.3125 10.1875 C4.31863281 10.16042969 3.32476562 10.13335937 2.30078125 10.10546875 C1.54152344 10.07066406 0.78226562 10.03585938 0 10 C0 6.7 0 3.4 0 0 Z " fill="#E7E7E7" transform="translate(407,245)"/>
<path d="M0 0 C0.33 0.99 0.66 1.98 1 3 C0.01 3.33 -0.98 3.66 -2 4 C-2 4.66 -2 5.32 -2 6 C17.305 6.495 17.305 6.495 37 7 C37 7.33 37 7.66 37 8 C23.14 8 9.28 8 -5 8 C-2.75 2.375 -2.75 2.375 0 0 Z " fill="#444444" transform="translate(699,517)"/>
<path d="M0 0 C0 5.28 0 10.56 0 16 C-0.33 16 -0.66 16 -1 16 C-1 12.7 -1 9.4 -1 6 C-3.31 7.98 -5.62 9.96 -8 12 C-8.66 11.67 -9.32 11.34 -10 11 C-9.67 10.01 -9.34 9.02 -9 8 C-8.34 8 -7.68 8 -7 8 C-6.731875 7.236875 -6.46375 6.47375 -6.1875 5.6875 C-4.80876015 2.56719402 -3.66285015 0 0 0 Z " fill="#828282" transform="translate(493,254)"/>
<path d="M0 0 C0.66 0 1.32 0 2 0 C2 4.29 2 8.58 2 13 C1.67 13 1.34 13 1 13 C0.67 10.36 0.34 7.72 0 5 C-1.65 6.32 -3.3 7.64 -5 9 C-3.50079488 5.88626628 -1.91847864 2.87771795 0 0 Z " fill="#CCCCCC" transform="translate(491,270)"/>
<path d="M0 0 C0 3.69349436 -0.88153908 5.00493457 -3 8 C-5.6875 10.3125 -5.6875 10.3125 -8 12 C-6.59023295 8.96147295 -4.91129772 6.4060405 -2.875 3.75 C-2.06675781 2.69039063 -2.06675781 2.69039063 -1.2421875 1.609375 C-0.83226562 1.07828125 -0.42234375 0.5471875 0 0 Z " fill="#636363" transform="translate(709,504)"/>
<path d="M0 0 C0.33 0.66 0.66 1.32 1 2 C-1.45614035 7 -1.45614035 7 -3 9 C-3.99 9.33 -4.98 9.66 -6 10 C-6 9.34 -6 8.68 -6 8 C-5.34 8 -4.68 8 -4 8 C-3.71125 7.05125 -3.4225 6.1025 -3.125 5.125 C-2 2 -2 2 0 0 Z " fill="#C0C0C0" transform="translate(468,278)"/>
<path d="M0 0 C0.33 1.32 0.66 2.64 1 4 C-1.31 5.98 -3.62 7.96 -6 10 C-4.6302836 6.00499382 -2.74277578 3.19990508 0 0 Z " fill="#BCBCBC" transform="translate(370,505)"/>
<path d="M0 0 C-1 3 -1 3 -3 4 C-3.65213292 6.02463255 -3.65213292 6.02463255 -4 8 C-4.66 7.34 -5.32 6.68 -6 6 C-5.8125 4 -5.8125 4 -5 2 C-2 0 -2 0 0 0 Z " fill="#C0C0C0" transform="translate(440,171)"/>
<path d="M0 0 C0.99 0.33 1.98 0.66 3 1 C1.71937515 2.7074998 0.38232443 4.37373596 -1 6 C-1.66 6 -2.32 6 -3 6 C-1.125 1.125 -1.125 1.125 0 0 Z " fill="#B8B8B8" transform="translate(545,256)"/>
<path d="M0 0 C1.32 0.33 2.64 0.66 4 1 C4 1.66 4 2.32 4 3 C2.35 3 0.7 3 -1 3 C-1 3.66 -1 4.32 -1 5 C-1.66 4.67 -2.32 4.34 -3 4 C-2.01 2.68 -1.02 1.36 0 0 Z " fill="#575757" transform="translate(716,495)"/>
<path d="M0 0 C0.66 1.32 1.32 2.64 2 4 C-0.31 5.32 -2.62 6.64 -5 8 C-5 7.34 -5 6.68 -5 6 C-4.34 6 -3.68 6 -3 6 C-2.690625 5.195625 -2.38125 4.39125 -2.0625 3.5625 C-1 1 -1 1 0 0 Z " fill="#C9C9C9" transform="translate(954,456)"/>
<path d="M0 0 C0.66 0 1.32 0 2 0 C2 0.66 2 1.32 2 2 C3.32 2.33 4.64 2.66 6 3 C5.67 4.32 5.34 5.64 5 7 C2.47411298 4.63707344 1.11179163 3.33537489 0 0 Z " fill="#5C5C5C" transform="translate(381,433)"/>
<path d="M0 0 C1.9375 0.6875 1.9375 0.6875 2.9375 2.6875 C0.2975 3.0175 -2.3425 3.3475 -5.0625 3.6875 C-4.7325 2.6975 -4.4025 1.7075 -4.0625 0.6875 C-2.0625 -0.3125 -2.0625 -0.3125 0 0 Z " fill="#404040" transform="translate(369.0625,425.3125)"/>
</svg>
